<?xml version="1.0" encoding="UTF-8"?>
<!DOCTYPE svg PUBLIC "-//W3C//DTD SVG 1.1//EN" "http://www.w3.org/Graphics/SVG/1.1/DTD/svg11.dtd">
<!-- Creator: CorelDRAW -->
<svg xmlns="http://www.w3.org/2000/svg" xml:space="preserve" width="2048px" height="2048px" style="shape-rendering:geometricPrecision; text-rendering:geometricPrecision; image-rendering:optimizeQuality; fill-rule:evenodd; clip-rule:evenodd"
viewBox="0 0 2048 2048"
 xmlns:xlink="http://www.w3.org/1999/xlink">
 <defs>
  <style type="text/css">
   <![CDATA[
    .fil2 {fill:none}
    .fil5 {fill:#0288D1}
    .fil6 {fill:#4FC3F7}
    .fil1 {fill:#7B1FA2}
    .fil0 {fill:#AB47BC}
    .fil3 {fill:#D84315}
    .fil4 {fill:#F56132}
   ]]>
  </style>
   <clipPath id="id0">
    <path d="M1024 -0.0011811c565.541,0 1024,458.461 1024,1024 0,565.541 -458.461,1024 -1024,1024 -565.541,0 -1024,-458.461 -1024,-1024 0,-565.541 458.461,-1024 1024,-1024z"/>
   </clipPath>
 </defs>
 <g id="Layer_x0020_1">
  <metadata id="CorelCorpID_0Corel-Layer"/>
  <path class="fil0" d="M1024 -0.0011811c565.541,0 1024,458.461 1024,1024 0,565.541 -458.461,1024 -1024,1024 -565.541,0 -1024,-458.461 -1024,-1024 0,-565.541 458.461,-1024 1024,-1024z"/>
  <g style="clip-path:url(#id0)">
   <g id="_385670584">
    <g>
     <polygon id="_3856861121" class="fil1" points="1237.07,489.468 2372.95,1625.35 2484.92,1959.59 1349.04,823.712 "/>
     <polygon id="_385686088" class="fil1" points="1575.52,837.23 2711.4,1973.11 2713.53,1975.97 2715.39,1979.02 2716.96,1982.26 2718.21,1985.65 2719.13,1989.19 2719.69,1992.86 2719.88,1996.63 2719.88,2657.38 2719.69,2661.15 2719.13,2664.81 2718.21,2668.36 2716.96,2671.75 2715.39,2674.99 2713.53,2678.04 2711.39,2680.9 2709,2683.53 2706.36,2685.93 2703.51,2688.06 2700.46,2689.92 2697.22,2691.49 2693.82,2692.74 2690.28,2693.66 2686.62,2694.22 2682.85,2694.41 1636.92,2694.41 501.036,1558.53 1546.96,1558.53 1550.74,1558.34 1554.4,1557.78 1557.94,1556.86 1561.34,1555.61 1564.58,1554.04 1567.63,1552.18 1570.48,1550.04 1573.12,1547.65 1575.51,1545.02 1577.65,1542.16 1579.51,1539.11 1581.08,1535.87 1582.33,1532.47 1583.24,1528.93 1583.81,1525.27 1584,1521.49 1584,860.749 1583.81,856.978 1583.24,853.312 1582.33,849.771 1581.08,846.373 1579.51,843.138 1577.65,840.083 "/>
     <polygon id="_385692712" class="fil1" points="501.036,1558.53 1636.92,2694.41 1633.15,2694.22 1629.48,2693.66 1625.94,2692.74 1622.54,2691.49 1619.31,2689.92 1616.25,2688.06 1613.4,2685.93 477.518,1550.04 480.371,1552.18 483.424,1554.04 486.661,1555.61 490.057,1556.86 493.6,1557.78 497.265,1558.34 "/>
    </g>
    <path id="_385670416" class="fil1" d="M658.276 683.35l578.797 -193.882 111.963 334.244 197.928 0c20.3705,0 37.0359,16.6772 37.0359,37.037l0 660.746c0,20.361 -16.6772,37.037 -37.0359,37.037l-1045.93 0c-20.3587,0 -37.0359,-16.6784 -37.0359,-37.037l0 -660.746c0,-20.3705 16.6654,-37.037 37.0359,-37.037l204.258 0 -47.0174 -140.362z"/>
   </g>
  </g>
  <path class="fil2" d="M1024 -0.0011811c565.541,0 1024,458.461 1024,1024 0,565.541 -458.461,1024 -1024,1024 -565.541,0 -1024,-458.461 -1024,-1024 0,-565.541 458.461,-1024 1024,-1024z"/>
  <path class="fil3" d="M501.036 823.712l1045.93 0c20.3705,0 37.037,16.6772 37.037,37.037l0 660.746c0,20.3599 -16.6784,37.037 -37.037,37.037l-1045.93 0c-20.3587,0 -37.037,-16.6654 -37.037,-37.037l0 -660.746c0,-20.3717 16.6665,-37.037 37.037,-37.037z"/>
  <path class="fil4" d="M1584 860.749l0 660.746c0,20.3599 -16.6772,37.037 -37.0359,37.037l-1045.93 0c-20.3587,0 -37.0359,-16.6784 -37.0359,-37.037l0 -660.746 560 360.824 560 -360.824z"/>
  <rect class="fil5" transform="matrix(0.723496 -0.242352 0.242352 0.723496 658.276 683.349)" width="800" height="480"/>
  <polygon class="fil6" points="658.276,683.35 1237.07,489.468 1015.53,788.991 "/>
 </g>
</svg>
