<?xml version="1.0" encoding="utf-8"?>
<!-- Generator: Adobe Illustrator 24.0.0, SVG Export Plug-In . SVG Version: 6.00 Build 0)  -->
<svg version="1.1" xmlns="http://www.w3.org/2000/svg" xmlns:xlink="http://www.w3.org/1999/xlink" x="0px" y="0px"
	 viewBox="0 0 256 256" enable-background="new 0 0 256 256" xml:space="preserve">
<g id="Layer_2">
</g>
<g id="Layer_1">
	<g>
	</g>
	<g>
		<path fill="#FFB69F" d="M165.62,35.237h-58.985c-5.588,0-10.118,4.53-10.118,10.118l0,36.213c0,5.573,4.363,10.351,9.935,10.45
			c5.675,0.1,10.301-4.465,10.301-10.116V60.885c0-2.599,2.107-4.706,4.706-4.706h19.223c2.599,0,4.706,2.107,4.706,4.706v20.68
			c0,5.571,4.358,10.35,9.928,10.452c5.675,0.104,10.307-4.465,10.307-10.116V35.237H165.62z"/>
		<rect x="128" y="5.5" fill="#72C2E9" width="37.624" height="29.737"/>
		<circle fill="#FFB69F" cx="131.069" cy="82.639" r="14.317"/>
		<path fill="#FC5D3D" d="M130.796,96.956L130.796,96.956c-10.091,0-18.271,8.18-18.271,18.271v35.451h36.542v-35.451
			C149.067,105.136,140.887,96.956,130.796,96.956z"/>
		<circle fill="#FFB69F" cx="189.017" cy="137.738" r="14.317"/>
		<path fill="#FC5D3D" d="M188.744,152.055L188.744,152.055c-10.091,0-18.271,8.18-18.271,18.271v35.451h36.542v-35.451
			C207.015,160.235,198.835,152.055,188.744,152.055z"/>
		<circle fill="#FFB69F" cx="67.529" cy="137.738" r="14.317"/>
		<path fill="#FC5D3D" d="M67.256,152.055L67.256,152.055c-10.091,0-18.271,8.18-18.271,18.271v35.451h36.542v-35.451
			C85.527,160.235,77.347,152.055,67.256,152.055z"/>
		<g>
			<g>
				<path fill="#FFCBC3" d="M140.597,144.706c-1.381,0-2.5-1.119-2.5-2.5v-3.377c0-1.381,1.119-2.5,2.5-2.5s2.5,1.119,2.5,2.5v3.377
					C143.097,143.587,141.978,144.706,140.597,144.706z M140.597,131.329c-1.381,0-2.5-1.119-2.5-2.5v-13.603
					c0-4.025-3.275-7.301-7.301-7.301c-1.381,0-2.5-1.119-2.5-2.5s1.119-2.5,2.5-2.5c6.782,0,12.301,5.519,12.301,12.301v13.603
					C143.097,130.21,141.978,131.329,140.597,131.329z"/>
			</g>
			<g>
				<path fill="#FFCBC3" d="M77.056,199.807c-1.381,0-2.5-1.119-2.5-2.5v-3.377c0-1.381,1.119-2.5,2.5-2.5s2.5,1.119,2.5,2.5v3.377
					C79.556,198.688,78.437,199.807,77.056,199.807z M77.056,186.43c-1.381,0-2.5-1.119-2.5-2.5v-13.604c0-4.025-3.275-7.3-7.3-7.3
					c-1.381,0-2.5-1.119-2.5-2.5s1.119-2.5,2.5-2.5c6.782,0,12.3,5.518,12.3,12.3v13.604
					C79.556,185.311,78.437,186.43,77.056,186.43z"/>
			</g>
			<g>
				<path fill="#FFCBC3" d="M198.544,199.807c-1.381,0-2.5-1.119-2.5-2.5v-3.376c0-1.381,1.119-2.5,2.5-2.5s2.5,1.119,2.5,2.5v3.376
					C201.044,198.688,199.925,199.807,198.544,199.807z M198.544,186.431c-1.381,0-2.5-1.119-2.5-2.5v-13.604
					c0-4.025-3.274-7.3-7.3-7.3c-1.381,0-2.5-1.119-2.5-2.5s1.119-2.5,2.5-2.5c6.782,0,12.3,5.518,12.3,12.3v13.604
					C201.044,185.312,199.925,186.431,198.544,186.431z"/>
			</g>
			<circle cx="165.62" cy="58.81" r="2.5"/>
			<path d="M128,3c-1.381,0-2.5,1.119-2.5,2.5v27.24h-18.86c-6.96,0-12.62,5.659-12.62,12.609v36.22
				c0,7.137,5.667,12.95,12.62,12.95c3.759,0,7.132-1.665,9.445-4.287c1.304,2.563,3.233,4.757,5.603,6.356
				c-6.894,3.383-11.662,10.455-11.662,18.638v35.451c0,1.381,1.119,2.5,2.5,2.5h4.181V192.9h-2.954c-1.381,0-2.5,1.119-2.5,2.5
				s1.119,2.5,2.5,2.5h5.454c1.381,0,2.5-1.119,2.5-2.5v-42.223h18.179V195.4c0,1.381,1.119,2.5,2.5,2.5h5.454
				c1.381,0,2.5-1.119,2.5-2.5s-1.119-2.5-2.5-2.5h-2.954v-39.723h4.182c1.381,0,2.5-1.119,2.5-2.5v-35.451
				c0-8.063-4.628-15.051-11.358-18.491c2.501-1.627,4.536-3.901,5.882-6.583c2.525,2.919,5.971,4.367,9.418,4.367
				c6.95-0.01,12.61-5.67,12.61-12.62V68.81c0-1.38-1.12-2.5-2.5-2.5c-1.37,0-2.5,1.12-2.5,2.5v13.09c0,4.19-3.42,7.61-7.61,7.62
				c-4.294,0-7.63-3.766-7.62-7.96V60.88c0-3.97-3.24-7.2-7.21-7.2h-19.22c-3.97,0-7.21,3.23-7.21,7.2v21.02
				c-0.01,4.032-3.217,7.62-7.76,7.62c-4.05-0.05-7.48-3.689-7.47-7.95V45.35c0.01-4.189,3.42-7.609,7.62-7.609h56.48V48.81
				c0,1.38,1.13,2.5,2.5,2.5c1.38,0,2.5-1.12,2.5-2.5c0-1.698,0.004-16.291,0.004-43.31c0-1.381-1.119-2.5-2.5-2.5
				s-2.5,1.119-2.5,2.5v27.237H130.5V5.5C130.5,4.119,129.381,3,128,3z M146.567,115.227v32.951h-31.542v-32.951
				c0-8.696,7.075-15.771,15.771-15.771S146.567,106.53,146.567,115.227z M131.069,94.456c-6.516,0-11.817-5.301-11.817-11.817
				c0-6.516,5.301-11.816,11.817-11.816s11.816,5.301,11.816,11.816C142.886,89.155,137.585,94.456,131.069,94.456z M121.46,58.68
				h19.22c1.22,0,2.21,0.99,2.21,2.2v9.814c-6.561-6.494-17.072-6.499-23.64-0.001V60.88C119.25,59.67,120.24,58.68,121.46,58.68z"
				/>
			<path d="M205.834,137.738c0-9.272-7.544-16.816-16.817-16.816c-9.272,0-16.816,7.544-16.816,16.816
				c0,5.802,2.954,10.927,7.437,13.95c-6.896,3.381-11.668,10.452-11.668,18.641v35.45c0,1.369,1.13,2.5,2.51,2.5h4.175V248H171.7
				c-1.381,0-2.5,1.119-2.5,2.5s1.119,2.5,2.5,2.5h5.454c1.381,0,2.5-1.119,2.5-2.5v-42.22h18.18v42.22c0,1.381,1.119,2.5,2.5,2.5
				h5.454c1.381,0,2.5-1.119,2.5-2.5s-1.119-2.5-2.5-2.5h-2.954v-39.72h4.186c1.393,0,2.49-1.153,2.49-2.5v-19.301
				c0-1.38-1.12-2.5-2.49-2.5c-1.38,0-2.5,1.12-2.5,2.5l-0.01,16.801c-11.024,0-20.378,0-31.54,0v-32.95
				c0.021-8.681,7.09-15.761,15.79-15.78c7.39,0,13.87,5.25,15.41,12.48c0.28,1.319,1.64,2.21,2.97,1.92
				c1.34-0.28,2.21-1.61,1.92-2.96c-1.228-5.813-5.025-11.175-10.901-14.157C202.771,148.832,205.834,143.64,205.834,137.738z
				 M189.017,149.555c-6.516,0-11.816-5.301-11.816-11.816s5.301-11.816,11.816-11.816c6.517,0,11.817,5.301,11.817,11.816
				S195.533,149.555,189.017,149.555z"/>
			<path d="M204.51,176.479c0,1.38,1.13,2.5,2.51,2.5c1.37,0,2.49-1.12,2.49-2.5s-1.12-2.5-2.49-2.5
				C205.64,173.979,204.51,175.1,204.51,176.479z"/>
			<path d="M55.18,130.06c-1.25-0.51-2.74,0.13-3.25,1.38c-0.513,1.273,0.1,2.745,1.38,3.261c1.274,0.506,2.727-0.084,3.26-1.381
				c0-0.01,0-0.01,0-0.02C57.081,132.052,56.479,130.583,55.18,130.06z"/>
			<path d="M46.485,170.326v35.451c0,1.381,1.119,2.5,2.5,2.5h4.181V248h-2.954c-1.381,0-2.5,1.119-2.5,2.5s1.119,2.5,2.5,2.5h5.454
				c1.381,0,2.5-1.119,2.5-2.5v-42.223h18.18V250.5c0,1.381,1.119,2.5,2.5,2.5H84.3c1.381,0,2.5-1.119,2.5-2.5s-1.119-2.5-2.5-2.5
				h-2.954v-39.723h4.181c1.381,0,2.5-1.119,2.5-2.5v-35.451c0-8.065-4.63-15.054-11.362-18.494c4.613-3,7.675-8.191,7.675-14.092
				c0-9.271-7.54-16.82-16.82-16.82c-2.75,0-5.48,0.68-7.89,1.97c-1.197,0.63-1.705,2.136-1.03,3.38
				c0.653,1.245,2.206,1.683,3.38,1.03c1.71-0.91,3.58-1.38,5.55-1.38c6.5,0.01,11.8,5.31,11.82,11.82
				c-0.02,6.5-5.32,11.8-11.83,11.81c-5.13,0-9.64-3.27-11.23-8.15c-0.42-1.29-1.86-2.029-3.15-1.609
				c-1.31,0.43-2.03,1.84-1.61,3.149c1.197,3.675,3.57,6.703,6.616,8.749C51.253,155.072,46.485,162.144,46.485,170.326z
				 M67.256,154.555c8.696,0,15.771,7.075,15.771,15.771v32.951H51.485v-32.951C51.485,161.63,58.56,154.555,67.256,154.555z"/>
			<path d="M131.069,209.649c-1.38,0-2.5,1.12-2.5,2.49v22.441l-7.04-7.041c-0.95-0.95-2.59-0.94-3.54,0
				c-0.97,0.979-0.97,2.56,0,3.54l11.31,11.3c0.932,0.952,2.513,1.025,3.54,0l11.31-11.311c0.971-0.97,0.971-2.55,0-3.529
				c-0.949-0.94-2.59-0.95-3.529-0.01l-0.011,0.01l-7.04,7.04v-22.44C133.569,210.77,132.45,209.649,131.069,209.649z"/>
			<path d="M87.621,110.407c0.784,1.128,2.339,1.416,3.479,0.625c1.134-0.789,1.414-2.347,0.625-3.48L67.624,72.895
				c-0.467-0.672-1.234-1.072-2.052-1.072H53.353c-1.381,0-2.5,1.119-2.5,2.5s1.119,2.5,2.5,2.5h10.912L87.621,110.407z"/>
			<path d="M5.797,74.322c0,1.381,1.119,2.5,2.5,2.5h32.556c1.381,0,2.5-1.119,2.5-2.5s-1.119-2.5-2.5-2.5H8.297
				C6.916,71.822,5.797,72.941,5.797,74.322z"/>
			<path d="M8.297,88.515h32.556c1.381,0,2.5-1.119,2.5-2.5s-1.119-2.5-2.5-2.5H8.297c-1.381,0-2.5,1.119-2.5,2.5
				S6.916,88.515,8.297,88.515z"/>
			<path d="M8.297,100.208h32.556c1.381,0,2.5-1.119,2.5-2.5s-1.119-2.5-2.5-2.5H8.297c-1.381,0-2.5,1.119-2.5,2.5
				S6.916,100.208,8.297,100.208z"/>
			<path d="M202.647,71.822h-12.219c-0.818,0-1.585,0.4-2.053,1.072l-24.102,34.657c-0.788,1.134-0.508,2.692,0.625,3.48
				c1.131,0.786,2.689,0.511,3.48-0.625l23.355-33.585h10.912c1.381,0,2.5-1.119,2.5-2.5S204.028,71.822,202.647,71.822z"/>
			<path d="M247.703,71.822h-32.556c-1.381,0-2.5,1.119-2.5,2.5s1.119,2.5,2.5,2.5h32.556c1.381,0,2.5-1.119,2.5-2.5
				S249.084,71.822,247.703,71.822z"/>
			<path d="M247.703,83.515h-32.556c-1.381,0-2.5,1.119-2.5,2.5s1.119,2.5,2.5,2.5h32.556c1.381,0,2.5-1.119,2.5-2.5
				S249.084,83.515,247.703,83.515z"/>
			<path d="M250.203,97.708c0-1.381-1.119-2.5-2.5-2.5h-32.556c-1.381,0-2.5,1.119-2.5,2.5s1.119,2.5,2.5,2.5h32.556
				C249.084,100.208,250.203,99.089,250.203,97.708z"/>
		</g>
	</g>
</g>
</svg>
